<svg xmlns="http://www.w3.org/2000/svg" viewBox="0 0 400 400">
  <!-- Definitions for gradients and filters -->
  <defs>
    <!-- Background gradient -->
    <linearGradient id="bgGradient" x1="0%" y1="0%" x2="100%" y2="100%">
      <stop offset="0%" style="stop-color:#1a1a2e" />
      <stop offset="100%" style="stop-color:#16213e" />
    </linearGradient>
    
    <!-- Database gradient -->
    <linearGradient id="dbGradient" x1="0%" y1="0%" x2="100%" y2="100%">
      <stop offset="0%" style="stop-color:#61DAFB" />
      <stop offset="100%" style="stop-color:#2A9FD6" />
    </linearGradient>
    
    <!-- Glow filter -->
    <!-- <filter id="glow" x="-50%" y="-50%" width="200%" height="200%">
      <feGaussianBlur in="SourceGraphic" stdDeviation="4" result="blur" />
      <feComposite in="blur" in2="SourceGraphic" operator="over" />
    </filter> -->
  </defs>

  <!-- Background with rounded corners -->
  <rect x="10" y="10" width="380" height="380" rx="20" fill="url(#bgGradient)" />
  
  <!-- Decorative circles in background -->
  <circle cx="50" cy="50" r="80" fill="#ffffff" fill-opacity="0.03" />
  <circle cx="350" cy="350" r="100" fill="#ffffff" fill-opacity="0.02" />

  <!-- Database Icon -->
  <g transform="translate(200, 165) scale(1.8)">
    <g filter="url(#glow)">
      <!-- Top ellipse -->
      <ellipse cx="0" cy="-20" rx="50" ry="20" 
          fill="url(#dbGradient)"/>
      
      <!-- Cylinder body -->
      <path d="M-50,-20 L-50,60 C-50,82 50,82 50,60 L50,-20"
          fill="url(#dbGradient)"
          opacity="0.9"/>
      
      <!-- Bottom ellipse -->
      <ellipse cx="0" cy="60" rx="50" ry="20" 
          fill="url(#dbGradient)"
          opacity="0.8"/>
      
      <!-- Middle lines -->
      <path d="M-50,7 C-50,29 50,29 50,7" 
          fill="none" 
          stroke="#1a1a2e" 
          stroke-width="2"/>
      
      <path d="M-50,34 C-50,56 50,56 50,34" 
          fill="none" 
          stroke="#1a1a2e" 
          stroke-width="2"/>
    </g>
  </g>

  <!-- Additional decorative elements -->
  <circle cx="60" cy="340" r="5" fill="#61DAFB" opacity="0.5" />
  <circle cx="340" cy="60" r="8" fill="#61DAFB" opacity="0.3" />
  <circle cx="30" cy="200" r="4" fill="#61DAFB" opacity="0.4" />
  <circle cx="370" cy="200" r="6" fill="#61DAFB" opacity="0.6" />
</svg>